# xmcd CD database file
# Copyright (C) 1996 Ti Kan
#
# Track frame offsets:
# 	150
# 	10165
# 	23022
# 	32807
# 	50560
# 	63490
# 	79060
# 	92580
# 	108490
# 	122787
#
# Disc length: 1837 seconds
#
# Revision: 1
# Processed by: cddbd v1.4b41PL1 Copyright (c) Steve Scherf et al.
# Submitted via: DiscPlay 3.4.1
#
DISCID=79072b0a
DTITLE=Charly McClain - Ten Year Anniversary
DYEAR=1900
DGENRE=
TTITLE0=That's What You Do To Me
TTITLE1=When A Love Ain't Right
TTITLE2=Who's Cheatin' Who
TTITLE3=Surround Me With Love
TTITLE4=Sleepin' With The Radio On
TTITLE5=Dancin' Your Memory Away
TTITLE6=Paradise Tonight
TTITLE7=Sentimental Ol' You
TTITLE8=Radio Heart
TTITLE9=With Just One Look In Your Eyes
EXTD=
EXTT0=
EXTT1=
EXTT2=
EXTT3=
EXTT4=
EXTT5=
EXTT6=with Mickey Gilley
EXTT7=
EXTT8=
EXTT9=with Wayne Massey
PLAYORDER=
